<svg width="2059" height="1079" viewBox="0 0 2059 1079" fill="none" xmlns="http://www.w3.org/2000/svg">
<path d="M551.927 1076.26C551.289 1074.77 545.314 1057.08 540.069 1042.14C537.664 1035.28 533.899 1027.74 528.314 1021.77C527.08 1020.45 526.48 1019.35 527.095 1018.16C530.464 1011.67 533.55 1007.21 534.24 998.791C534.952 990.107 525.191 981.329 520.076 972.742C516 965.899 507.62 958.679 499.241 954.454C489.953 949.771 477.719 935.572 472.115 931.95C463.995 926.701 453.755 924.692 448.159 923.245C446.779 922.888 445.692 921.804 444.77 920.834C443.848 919.864 443.21 918.801 443.667 918.143C446.828 913.592 456.808 919.999 463.072 919.519C470.494 918.949 474.938 913.243 481.657 903.92C485.685 898.33 491.759 893.494 495.971 887.042C500.401 880.255 498.886 874.457 500.68 873.112C505.792 869.277 514.859 875.793 520.584 875.903C526.88 876.023 533.294 870.872 538.06 866.254C545.005 859.524 549.187 854.552 551.314 847.837C553.865 839.785 552.156 831.457 553.904 823.884C555.663 816.26 557.345 811.351 559.034 809.259C567.615 798.632 594.6 797.928 600.014 793.045C607.63 786.177 609.769 778.714 612.838 772.368C616.432 764.937 619.612 757.766 622.267 752.435C625.373 746.198 629.252 741.104 633.591 736.16C638.281 730.817 643.963 728.419 652.056 726.052C661.033 723.427 671.873 723.36 684.084 721.701C697.932 719.821 707.06 713.923 718.187 711.387C732.526 708.119 746.116 709.076 758.601 707.143C764.984 706.154 772.634 705.209 786.494 700.175C795.498 696.905 803.137 690.623 808.402 685.188C812.796 680.652 815.757 672.917 817.732 666.338C820.875 655.868 824.552 642.939 826.784 636.848C830.425 626.912 841.361 613.102 847.058 605.642C856.226 593.636 874.056 576.679 888.346 567.104C896.222 561.827 912.267 554.223 923.408 549.258C940.264 541.747 948.788 541.591 957.201 542.169C975.684 543.44 996.693 546.128 1013.13 549.72C1026.68 552.682 1039.5 556.302 1057.38 558.102C1099.21 562.312 1104.26 562.853 1113.45 567.678C1120.06 571.141 1125.88 571.343 1127.63 573.187C1133.41 579.295 1127.47 591.97 1127.41 601.075C1127.36 608.503 1130.53 613.481 1136.81 620.411C1145.81 630.341 1163.2 631.389 1187.64 632.879C1197.81 633.499 1210.73 626.14 1239.41 614.289C1257.13 606.967 1261.85 600.017 1272.36 591.343C1282.14 583.272 1295.36 578.231 1306.84 575.197C1321.19 571.403 1334.14 577.386 1340.97 581.89C1347.85 586.438 1347.23 596.66 1347.6 604.12C1347.93 610.588 1352.82 618.031 1359.39 631.479C1363.12 639.122 1367.86 643.367 1374.9 648.931C1381.8 654.384 1392.73 655.352 1404.8 658.679C1416.82 661.991 1422.72 673.87 1428.65 677.745C1433.25 680.751 1441.13 682.039 1452.42 683.679C1468.4 686 1483.28 685.013 1494.58 684C1507.48 682.842 1515.72 679.86 1520.99 678.469C1530.74 675.894 1545.94 675.232 1560.13 675.438C1575.03 675.653 1590.16 680.723 1600.85 682.792C1607.18 684.016 1613.98 687.18 1626.55 694.34C1648.94 707.1 1662.94 722.966 1666.69 727.62C1672.23 734.478 1674.49 744.353 1681.55 754.759C1690.98 768.652 1699.69 778.58 1703.18 781.751C1713.77 791.387 1730.62 799.976 1740.13 805.846C1748.1 810.764 1761.08 815.12 1769.37 814.647C1780.09 814.037 1787.16 801.387 1795.58 797.626C1807.51 792.29 1820.38 785.621 1837.7 770.758C1850.89 759.438 1859.19 753.065 1863.28 744.197C1867.65 734.715 1887.02 733.593 1895.72 731.817C1900.28 730.887 1904 731.753 1906.43 732.437C1914.14 734.609 1922.18 748.44 1928.51 753.243C1934.14 757.509 1944.1 761.391 1956.12 766.421C1964.86 770.078 1973.04 770.412 1977.8 770.464C1990.2 770.601 2014.77 755.42 2025.74 750.602C2033.85 747.108 2039.77 744.101 2046.06 742.379C2048.55 741.842 2052.22 741.098 2055.99 739.686" stroke="#FDFDFD" stroke-width="5" stroke-linecap="round"/>
<path d="M443.138 907.506C441.43 904.837 437.782 898.83 433.329 895.591C430.254 893.354 426.18 892.691 423.498 890.549C418.497 886.554 421.214 879.165 420.682 875.733C419.82 870.167 411.037 869.071 407.845 863.058C403.856 855.543 408.837 847.266 406.214 843.012C404.704 840.563 402.714 837.914 402.122 834.003C400.999 826.584 404.386 819.247 407.356 810.608C415.531 786.837 444.083 834.118 455.183 840.509C465.346 846.361 476.797 857.7 482.059 865.874C486.533 872.825 488.903 878.07 488.472 880.237C487.261 886.334 478.075 889.925 466.061 900.807C461.243 905.172 458.081 907.839 454.705 908.262C453.031 908.265 451.436 907.84 449.55 906.929C447.665 906.019 445.538 904.636 440.768 900.956" stroke="#FDFDFD" stroke-width="5" stroke-linecap="round"/>
<path d="M1699.02 760.362C1700.7 761.309 1705.56 763.634 1711.12 767.441C1716.3 770.987 1719.54 777.17 1724.84 782.268C1729.83 787.07 1734.37 789.899 1740.51 794.974C1745.04 798.717 1750.04 801.337 1754.5 804.41C1756.87 806.044 1760.42 806.642 1764.39 806.585C1772.51 806.469 1776.11 799.556 1777.06 797.04C1778.23 793.951 1774.49 790.96 1771.81 789.244C1765.42 785.147 1754.1 785.047 1747.97 783.334C1737.23 780.334 1731.11 774.315 1726.16 770.662C1720.25 766.683 1713.6 763.248 1706.13 760.881C1704.24 760.235 1702.54 759.49 1698.21 758.079" stroke="#FDFDFD" stroke-width="5" stroke-linecap="round"/>
<path d="M1575.53 666.448C1577.11 666.657 1583.23 667.503 1589.12 668.931C1594.6 670.26 1600.08 672.053 1606.48 674.486C1608.55 675.23 1611.07 676.069 1614.2 677.13C1617.33 678.191 1621 679.45 1624.78 680.746" stroke="#FDFDFD" stroke-width="5" stroke-linecap="round"/>
<path d="M1153.66 573.242C1155.12 574.398 1163.98 579.667 1174.22 586.034C1183.63 591.887 1193.93 596.189 1205.26 600.397C1212.17 602.966 1217.62 607.129 1218.36 608.133C1221.44 612.332 1209.24 613.467 1203.39 617.077C1196.85 621.108 1182.03 621.22 1165.98 618.603C1152.5 616.404 1146.4 608.774 1142.15 604.534C1139.31 601.701 1137.04 598.78 1135.64 596.104C1132.03 589.182 1135.81 577.236 1138.62 570.689C1143.65 570.493 1147.46 572.292 1150.79 573.771C1152.44 574.516 1154.01 575.25 1155.63 576.006" stroke="#FDFDFD" stroke-width="5" stroke-linecap="round"/>
<path d="M1065.72 527.17C1064.22 527.38 1058.87 528.644 1053.12 531.396C1047.79 533.94 1043.29 536.156 1038.82 539.022C1036.76 540.349 1035.43 542.621 1035.09 544.631C1034.32 549.248 1044.28 548.344 1049.31 549.513C1055.5 550.95 1060.8 551.737 1070.79 551.794C1079.12 551.841 1083.26 549.272 1084.58 547.83C1079.58 542.83 1074.86 539.617 1069.91 534.571C1068.72 533.168 1067.66 531.785 1065.6 527.783" stroke="#FDFDFD" stroke-width="5" stroke-linecap="round"/>
<path d="M724.09 685.998C726.298 684.931 733.686 681.718 739.953 679.399C750.947 675.332 762.505 669.039 770.24 663.836C776.373 659.711 780.4 652.088 785.871 648.462C791.833 644.511 799.152 641.008 804.196 636.17C808.989 631.575 813.673 625.216 820.759 617.385C824.248 613.528 827.027 611.13 827.606 610.788C835.368 606.21 816.71 628.117 812.736 643.189C810.994 649.797 808.447 656.599 805.854 662.134C803.573 667.003 801.679 674.5 795.248 680.874C782.211 693.794 767.092 690.844 758.993 691.804C746.766 693.253 731.819 690.307 719.151 689.021C715.948 688.373 719.294 687.735 721.857 687.407C724.42 687.078 726.097 687.078 727.826 686.756" stroke="#FDFDFD" stroke-width="5" stroke-linecap="round"/>
<path d="M551.768 800.637C548.893 801.791 541.371 805.6 536.853 809.043C531.578 813.062 525.167 817.35 518.755 820.802C512.163 824.352 498.972 824.15 488.743 823.776C481.58 823.514 475.633 821.365 468.648 820.232C465.005 819.642 455.591 818.677 444.884 818.13C441.731 817.969 443.196 819.06 444.843 820.173C451.636 824.765 458.435 830.269 468.133 837.744C474.22 842.435 480.892 848.164 486.421 852.902C490.604 856.486 494.784 861.84 499.499 865.035C501.856 866.631 505.485 865.783 508.918 865.676C516.535 865.438 522.312 856.998 526.775 853.172C532.091 848.616 534.933 840.362 537.057 834.379C539.097 828.632 539.807 819.427 541.505 811.77C542.768 808.979 544.363 806.813 546.263 805.152C547.325 804.341 548.583 803.597 552.421 801.863" stroke="#FDFDFD" stroke-width="5" stroke-linecap="round"/>
<path d="M402.286 783.965C405.12 786.167 412.536 792.735 418.151 797.347C424.509 800.586 429.704 802.496 432.713 803.393C434.359 803.872 436.246 804.396 439.779 805.254" stroke="#FDFDFD" stroke-width="5" stroke-linecap="round"/>
<path d="M378.665 774.774C378.236 770.178 378.649 761.599 380.29 755.566C382.184 748.605 379.061 736.713 377.21 716.53C375.939 702.668 377.838 684.959 376.604 669.175C376.018 661.677 375.787 658.767 376.628 656.567C377.049 655.464 378.726 655.11 380.53 655.254C389.303 655.958 397.46 659.739 410.316 661.703C422.554 663.572 432.195 660.583 439.47 657.84C446.389 655.231 454.03 654.878 460.17 652.263C472.832 646.87 475.001 637.508 478.777 630.356C481.907 624.43 482.639 618.809 487.348 608.134C489.145 604.06 491.647 602.138 494.02 600.851C500.226 597.484 508.56 598.274 517.463 596.924C527.638 595.38 537.245 599.907 546.49 602.205C555.09 604.343 576.155 593.289 591.28 589.48C606.632 585.613 633.412 593.05 641.439 596.234C653.952 601.196 662.891 604.501 674.201 608.776C686.146 613.291 690.649 623.445 697.785 630.112C703.323 635.287 710.946 640.691 724.505 646.379C730.645 648.954 736.082 648.46 739.677 647.872C745.62 646.9 753.421 639.05 760.492 633.223C766.826 628.004 769.657 622.485 773.791 618.073C777.72 613.879 782.773 609.381 790.56 606.463C801.664 602.301 810.938 603.348 817.633 603.75C822.422 604.038 811.103 612.219 805.674 615.552C800.327 618.835 791.805 627.331 784.992 633.289C780.831 636.927 774.286 645.213 768.34 651.034C764.688 654.609 759.861 657.751 754.546 661.569C745.078 668.371 739.235 668.567 733.967 670C728.967 671.36 717.707 677.419 706.964 683.068C695.656 689.015 687.471 697.252 679.516 701.235C669.71 706.144 658.389 708.379 647.731 712.666C630.384 719.642 622.391 724.889 615.423 729.461C610.221 732.875 605.271 739.085 602.575 744.442C600.11 749.342 596.357 755.284 589.433 763.972C583.808 771.031 571.993 778.485 564.35 782.63C555.918 787.203 545.663 790.05 538.887 792.43C533.389 794.361 518.888 798.814 507.419 803.279C501.941 805.412 496.993 809.111 492.541 810.646C486.478 812.736 476.29 807.177 470.181 802.762C462.019 796.862 448.755 791.269 444.346 788.736C439.571 785.993 431.494 782.258 414.205 774.251C406.363 770.618 397.539 773.928 388.605 775.043C385.485 775.205 383.001 775.098 380.643 775.042C379.456 775.092 378.286 775.302 377.081 775.518" stroke="#FDFDFD" stroke-width="5" stroke-linecap="round"/>
<path d="M368.57 571.694C368.357 575.262 367.074 585.007 364.126 589.578C363.326 590.817 361.828 591.794 361.17 593.227C358.365 599.342 362.94 606.092 363.9 610.915C364.446 613.66 363.583 616.482 364.144 619.123C365.992 627.819 377.627 625.277 382.663 626.92C389.756 629.234 397.727 637.942 405.956 644.386C412.134 649.223 421.576 647.951 429.672 646.457C440.544 644.451 444.67 639.262 450.864 638.07C455.16 637.243 458.771 637.322 460.831 635.611C465.631 631.624 465.659 623.928 468.249 611.795C469.294 606.896 471.483 602.961 471.744 598.834C472.34 589.393 456.475 585.99 447.538 579.973C440.408 575.173 431.337 565.809 422.994 562.446C407.528 556.213 384.588 567.508 377.171 568.723C375.618 568.977 375.223 565.91 375.368 564.336C375.618 561.631 382.25 560.712 389.716 559.806C392.258 559.498 391.83 557.518 390.974 556.219C387.225 550.529 370.031 545.826 354.593 537.962C344.372 532.757 335.593 527.231 326.701 520.987C317.909 514.812 313.636 510.563 311.157 508.394C308.077 505.699 321.744 520.058 329.368 526.764C337.346 533.781 343.929 535.989 348.966 538.585C351.262 539.768 353.477 540.864 355.011 542.973C356.809 545.444 356.028 549.118 356.395 551.814C356.724 554.227 361.503 555.063 367.004 555.904C370.958 556.508 372.226 561.189 373.284 564.467C373.923 567.115 374.244 569.771 373.658 572.1C372.968 572.961 371.479 573.171 368.011 573.065" stroke="#FDFDFD" stroke-width="5" stroke-linecap="round"/>
<path d="M2053.3 721.661C2050.53 721.448 2040.67 721.436 2029.97 724.497C2022.58 726.612 2016.92 733.18 2009.23 737.1C2001.81 740.88 1994.67 741.981 1989.13 743.465C1981.97 745.384 1972.76 745.266 1967.38 745.851C1959.98 746.654 1951.38 747.382 1944.5 747.441C1937.33 747.501 1930.76 735.808 1925.59 732.197C1917.07 726.245 1905.42 721.937 1898.73 720.104C1893.26 718.602 1887.14 718.276 1877.32 718.319C1869.29 718.354 1863.5 723.751 1859.25 728.948C1854.91 734.248 1846.75 737.426 1839.55 741.497C1828.18 747.928 1820.12 756.465 1814.03 762.52C1809.29 767.216 1805.28 772.473 1798.14 775.715C1794.42 777.405 1791.41 778.637 1788.68 778.476C1778.65 777.885 1770.58 767.899 1765.31 766.125C1752.71 761.879 1731.74 756.091 1719.78 754.52C1711.72 753.461 1705.26 748.356 1696.68 742.401C1690.28 737.958 1685.17 732.681 1678.74 725.766C1662.89 708.737 1655.64 699.17 1650.58 691.922C1645.61 684.801 1640.48 678.638 1637.84 675.208C1633.25 669.242 1649.17 659.324 1653.26 648.265C1655.61 641.907 1653.53 636.417 1651.98 634.108C1651.26 633.022 1649.48 633.181 1648.02 633.703C1641.24 636.129 1640.86 646.702 1638.18 653.435C1636.94 656.542 1633.67 658.481 1630.14 659.857C1623.2 662.556 1618.2 656.963 1616.59 655.089C1615.83 654.209 1616.04 652.896 1616.51 651.868C1619.54 645.268 1630.38 633.701 1637.3 628.498C1640.72 625.932 1645.15 626.125 1647.74 625.379C1650.23 624.661 1650.77 621.088 1651.56 618.25C1652 616.704 1652.25 614.881 1650.93 613.471C1649.6 612.061 1646.62 611.104 1645.45 609.653C1644.29 608.203 1645.02 606.289 1646.08 604.877C1650.65 598.785 1661.52 599.27 1672.48 601.269C1676.52 602.007 1679.44 601.378 1681.77 600.363C1688.73 597.326 1690.88 582.838 1696.84 576.687C1708.21 564.962 1717.99 564.017 1722.6 557.473C1731.14 545.321 1731.03 537.925 1732.41 525.152C1733.26 517.317 1731.98 508.727 1732.71 498.762C1733.26 491.3 1741.49 486.561 1749 476.48C1753.91 469.884 1758.62 455.494 1762.37 443.65C1764.3 437.541 1766.28 431.561 1767.29 421.316C1768.21 412.078 1774.94 396.588 1781.84 389.118C1782.98 387.884 1784.59 388.351 1785.13 387.606C1788.14 383.471 1788.72 376.568 1790.16 370.434C1791.64 364.131 1791.27 357.773 1792.85 350.722C1793.67 347.084 1796.46 344.742 1798.14 342.971C1799.76 341.274 1803.43 341.616 1806.92 342.717C1816.71 345.804 1816.24 364.862 1819.54 372.624C1821.97 378.32 1825.46 382.585 1830.65 385.715C1837.62 389.913 1840.81 395.51 1848.07 398.059C1853.49 399.961 1855.98 406.294 1858.15 411.029C1860.34 415.811 1869.51 411.688 1873.61 414.97C1879.87 419.996 1886.46 399.431 1890.19 393.545C1891.7 391.155 1892.52 387.904 1892.93 385.008C1894.65 373.11 1865.54 373.627 1861.84 368.216C1855.43 358.845 1861.71 347.854 1862.73 338.934C1863.6 331.221 1857.21 308.878 1856.92 290.016C1856.69 275.18 1844.74 248.535 1843.75 238.919C1842.71 228.77 1847.87 219.182 1853.63 208.003C1863.82 188.217 1864.4 180.045 1865.72 163.703C1866.59 152.948 1867.14 133.573 1867.78 122.272C1868.92 102.245 1868.74 87.9258 1868.57 73.0238C1870.21 61.5443 1871.9 57.6706 1874.38 55.0521C1875.81 53.2844 1877.59 50.6256 1879.43 47.2417" stroke="#FDFDFD" stroke-width="5" stroke-linecap="round"/>
<path d="M1829.14 49.6067C1829.35 56.2157 1835.86 83.6681 1836.59 97.6057C1837.06 106.612 1827.75 119.611 1818.73 149.939C1810.18 178.699 1806.98 185.242 1803.45 201.997C1800.49 216.024 1802.99 223.275 1805.1 231.584C1808.98 246.829 1809.13 270.612 1805.97 276.662C1802.95 282.416 1809.01 295.459 1815.44 311.945C1816.85 315.555 1816.04 318.774 1814.65 319.703C1807.93 324.206 1799.75 317.493 1792.8 320.131C1777.4 325.978 1765.46 352.11 1763.77 355.546C1762.49 358.147 1769.27 358.58 1772.34 359.098C1778.41 360.122 1772.56 373.263 1769.23 379.891C1766.37 385.603 1757.65 386.315 1752 388.849C1745.59 391.722 1749.64 399.857 1749.43 405.048C1749.18 411.48 1741.92 415.42 1741.42 422.882C1740.78 432.211 1734.72 435.66 1722.93 448.546C1717.14 454.867 1718.68 465.483 1720.74 477.05C1721.99 484.068 1718.12 488.62 1717.36 491.366C1715.38 498.497 1721.16 505.657 1721.74 514.379C1722.8 530.228 1719 541.015 1713.84 548.765C1708.91 556.172 1694.37 565.373 1686.39 570.963C1680.6 575.02 1667.41 580.847 1657.77 586.161C1652.1 589.286 1647.99 592.311 1643.1 594.852C1636.97 598.04 1632.31 601.309 1625.01 608.285C1618.9 614.119 1614.26 621.53 1612.95 627.408C1611.56 633.651 1609.74 639.431 1607.54 644.197C1605.9 647.724 1604.69 652.036 1602.65 655.526C1599.57 660.82 1591.29 659.785 1580.52 658.396C1553.68 654.935 1543.8 658.897 1531.37 660.432C1522.65 661.508 1514.48 663.975 1504.21 666.248C1476.48 672.392 1470.32 667.787 1454.56 665.916C1446.38 664.944 1439.17 660.497 1434.06 655.727C1423.97 646.311 1413.96 636.681 1404.89 631.062C1399.7 627.84 1394.68 624.731 1382.09 614.115C1376.32 609.254 1372.45 603.261 1368.25 596.907C1364.48 591.209 1362.22 583.054 1359.28 575.058C1356.12 566.466 1345.1 560.83 1333.1 555.649C1323.79 551.633 1314.15 556.955 1301.89 561.473C1292.67 564.869 1280.61 568.832 1264.9 575.282C1256.57 578.703 1250.1 583.549 1243.6 587.21C1231.56 593.986 1211.42 589.18 1202.67 584.79C1196.46 581.673 1191.76 577.694 1184.79 573.031C1172.87 565.065 1161.16 560.078 1151.55 558.561C1135.02 555.953 1113.05 552.262 1099.16 545.898C1093.2 543.168 1090.89 535.065 1086.16 528.392C1081.51 521.846 1079.91 516.457 1079.27 513.832C1078.94 512.505 1079.05 511.101 1081.62 510.335C1095.94 506.068 1105.37 506.473 1112.6 501.697C1125.49 493.18 1133.13 474.381 1140.93 466.997C1147.14 461.12 1155.49 456.198 1158.89 451.844C1164.81 444.263 1173.61 432.465 1176.79 427.515C1180.48 421.779 1182.3 415.282 1188.32 407.012C1196.52 395.74 1204.84 392.394 1219.05 380.492C1231.12 370.387 1241.88 369.622 1247.28 364.675C1250.78 361.468 1249.04 355.751 1248.5 352.431C1247.3 344.903 1233.76 339.25 1226.01 332.713C1222.43 329.692 1220.04 326.208 1218.91 322.996C1217.54 319.088 1217.99 313.974 1219.04 308.723C1221.6 295.931 1235.23 289.362 1240.05 285.711C1247.32 280.204 1253.32 273.918 1279.2 251.038C1295.04 237.037 1301.29 230.089 1309.46 226.191C1322.45 219.998 1336.48 221.89 1348.74 220.653C1355.01 220.02 1359.99 217.488 1370.39 211.137C1387.11 200.92 1395.69 186.14 1398.44 180.673C1403.63 170.352 1412.08 158.66 1417.24 151.068C1426.2 137.874 1434 124.511 1444.23 107.651C1453.93 91.6658 1461.96 76.6146 1468.19 65.8812C1471.11 58.1868 1472.18 52.7049 1472.6 49.3307C1472.81 47.5517 1473.02 45.6374 1473.24 43.3428" stroke="#FDFDFD" stroke-width="5" stroke-linecap="round"/>
<path d="M1373.26 58.4219C1370.58 63.8107 1368.44 71.1885 1369.58 78.2518C1371.47 89.9229 1376.25 96.3088 1377.26 103.194C1379.06 115.383 1374.32 131.768 1372.27 138.944C1370.12 146.445 1362.32 154.753 1349.42 164.354C1341.78 170.046 1337.8 178.679 1334.03 187.712C1330.8 195.42 1326.83 204.238 1317.3 213.39C1311.7 218.763 1300.12 211.736 1291.61 212.359C1280.19 213.196 1263.65 227.855 1251.49 239.705C1244.43 246.586 1240.06 255.422 1232.95 265.179C1227.5 272.669 1223.6 277.364 1220.05 282.566C1216.62 287.582 1212 292.832 1207.86 298.289C1205.11 301.911 1202.96 305.761 1201.94 309.51C1199.01 320.29 1206.84 333.814 1211.65 339.177C1216.38 344.446 1226.73 346.434 1230.67 350.034C1232.77 351.95 1231.95 355.439 1230.83 357.817C1228.13 363.553 1218.67 363.382 1212.1 365.611C1204.34 368.239 1187.45 374.058 1178.69 378.894C1170.86 383.216 1165.18 398.371 1161.11 407.958C1158.05 415.175 1141.63 431.492 1132.38 440.481C1127.16 445.549 1128.51 455.405 1125.72 463.131C1121.78 474.046 1111.67 480.608 1102.91 485.971C1095.69 490.396 1089.53 487.508 1076.99 493.042C1063.38 499.049 1057.95 504.546 1051.66 510.1C1044.59 516.339 1034.23 524.334 1025.24 529.119C1018.9 532.494 1013.69 532.938 995.793 534.267C987.369 534.892 982.002 533.567 974.642 532.226C965.934 530.64 954.537 529.046 944.472 529.628C924.668 530.774 910.72 533.254 890.407 542.777C882.365 546.547 874.922 552.719 859.672 563.212C848.319 571.024 844.08 581.309 838.79 587.278C833.969 592.717 831.054 595.76 828.053 596.711C820.69 599.048 812.491 588.442 805.175 589.272C799.131 589.957 790.589 591.595 784.006 593.93C777.335 596.297 765.883 602.162 757.104 608.215C751.901 611.803 750.691 617.528 748.279 622.358C745.68 627.561 737.729 631.509 730.085 633.862C727.311 634.715 724.912 632.795 723.037 631.029C718.039 626.323 714.396 619.379 702.553 611.069C692.645 604.117 685.939 595.53 680.501 593.529C674.654 591.377 667.885 588.105 661.438 585.05C655.802 582.379 648.878 581.015 642.369 578.762C636.82 576.841 630.83 573.931 620.696 571.883C605.326 568.777 584.783 572.066 565.102 575.296C554.994 576.955 545.421 575.354 537.38 576.344C520.894 578.373 510.744 581.172 502.239 581.117C495.247 581.071 489.557 577.306 482.364 575.481C475.864 573.831 468.293 573.22 462.109 571.668C456.38 570.231 452.708 563.797 447.229 558.573C442.343 553.913 435.969 549.829 429.345 546.21C420.221 541.225 403.103 543.576 378.496 529.59C368.129 523.697 360.969 520.791 356.128 515.756C350.822 510.235 349.361 503.84 338.921 493.217C325.112 479.168 308.469 475.905 296.321 466.568C285.076 457.927 283.396 438.856 281.622 432.182C279.159 422.916 278.019 418.201 278.001 415.631C277.946 407.656 291.279 396.464 298.263 390.159C302.473 386.358 313.832 397.807 321.51 403.528C326.518 407.259 335.266 405.496 344.794 405.803C352.038 406.036 361.397 407.813 380.139 408.505C384.958 408.684 393.371 409.193 405.696 409.56C425.427 410.146 449.736 406.311 457.449 401.505C465.21 396.671 467.259 392.092 469.479 390.6C470.861 389.67 471.488 386.98 470.113 382.904C463.016 361.86 448.322 354.85 445.663 346.785C444.72 343.922 444.316 340.334 444.574 335.779C445.041 327.543 452.863 320.701 459.85 313.948C463.412 310.506 469.605 315.867 473.043 318.245C477.873 321.587 479.553 336.749 484.01 347.102C487.216 354.551 497.245 348.28 510.822 351.281C513.257 351.819 511.869 354.387 510.469 355.567C505.399 359.841 498.453 359.82 490.923 359.55C488.129 359.449 484.263 360.963 482.017 363.498C474.971 371.45 497.474 371.563 505.309 371.931C511.512 372.222 533.314 374.948 547.676 372.917C558.148 371.435 569.513 372.233 584.417 371.696C595.458 371.298 603.697 369.866 611.654 367.342C614.045 366.584 617.34 366.321 619.067 364.878C620.794 363.436 620.899 360.99 621.687 360.412C627.506 356.139 647.006 368.271 659.87 367.567C667.073 367.173 675.092 364.762 690.507 369.508C694.888 370.856 696.737 373.872 700.487 373.818C707.253 373.721 712.293 369.263 720.087 365.978C723.377 364.592 729.027 364.077 732.852 365.305C746.093 369.555 759.096 376.549 775.726 378.629C787.097 380.051 799.237 371.669 807.658 369.194C818.679 365.955 834.032 369.689 839.977 373.228C842.375 374.656 850.412 374.032 865.496 371.936C894.041 367.969 903.619 373.836 910.204 378.607C914.984 382.07 912.655 390.352 916.401 396.398C920.192 402.517 934.414 401.603 950.096 402.127C953.517 402.241 955.721 401.915 957.275 401.167C958.829 400.42 959.668 399.143 959.993 397.635C961.756 389.472 950.464 380.561 942.731 370.209C935.505 360.537 925.99 357.028 916.523 353.583C904.873 349.344 895.574 342.21 873.276 339.665C864.056 338.613 857.874 348.614 853.087 355.196C848.166 361.961 838.334 361.889 831.897 361.462C822.971 360.87 821.128 346.362 811.102 327.312C808.937 323.199 808.656 320.999 808.699 318.68C808.92 306.765 822.179 297.137 828.308 290.27C841.058 275.984 840.732 270.479 841.467 270.112C851.976 264.871 843.376 295.647 843.932 303.575C844.038 305.074 845.771 305.751 847.571 304.854C857.544 299.882 860.374 288.291 864.053 281.447C867.876 274.336 871.615 262.534 872.377 249.945C872.877 241.675 871.496 233.069 872.975 226.575C874.431 220.182 880.275 216.404 882.458 210.869C886.552 200.486 895.831 189.442 903.092 181.334C907.888 175.977 911.839 170.544 915.128 157.506C917.346 148.712 917.681 143.031 916.881 139.164C916.349 136.589 912.428 135.705 910.549 132.438C905.015 122.816 913.005 108.866 913.484 99.3073C913.598 97.0342 913.535 95.3304 914.583 93.7625C921.042 88.4305 924.852 83.5093 927.295 74.115C927.724 71.9976 927.934 70.7214 928.15 68.1174" stroke="#FDFDFD" stroke-width="5" stroke-linecap="round"/>
<path d="M1056.72 2.5C1056.83 9.8459 1057.46 26.422 1056.72 34.8309C1055.95 43.5257 1051.76 54.7578 1049.36 67.5419C1045.76 86.7326 1026.24 96.0763 1020.03 103.789C1014.72 110.388 1014.39 122.861 1012.55 135.704C1011.38 143.913 1011.26 152.233 1013.26 158.443C1015.94 166.776 1022.15 181.103 1022.32 196.54C1022.35 199.903 1022.68 202.525 1023.52 204.504C1026.57 211.646 1037.65 211.58 1046.02 213.582C1047.97 214.049 1049.46 215.164 1051.26 215.911C1053.07 216.657 1055.06 217.287 1054.6 214.846C1051.53 198.664 1044.66 195.614 1043.31 190.242C1041.43 182.734 1045.98 174.569 1048.48 167.528C1052.58 155.974 1043.26 143.301 1044.2 136.217C1044.8 131.754 1046.33 127.616 1044.78 124.283C1043.8 122.19 1038.72 121.693 1034.85 118.37C1029.93 114.151 1043.12 104.954 1051.29 97.5897C1062.66 87.336 1066.77 84.4248 1069.64 78.6802C1077.31 63.2672 1074.62 43.3926 1077.42 34.9103C1079.37 30.5144 1080.76 27.0467 1081.5 24.2623C1081.93 22.754 1082.45 21.0524 1084.26 16.3987" stroke="#FDFDFD" stroke-width="5" stroke-linecap="round"/>
<path d="M887.63 49.1257C887.523 50.9146 884.755 61.2252 881.141 73.9219C878.837 82.0125 882.31 93.2213 884.496 101.74C886.275 108.675 886.46 116.664 882.338 125.615C879.221 132.382 877.223 145.101 879.213 152.636C881.238 160.304 874.728 173.806 870.614 182.764C868.319 187.763 869.208 194.923 864.875 200.72C856.062 212.51 843.129 219.598 835.019 233.04C830.223 240.989 814.211 250.193 795.046 260.192C785.454 265.197 783.267 269.514 782.085 273.469C780.375 279.19 782.582 284.448 785.22 287.354C788.114 290.54 791.688 292.293 793.592 294.873C799.694 303.14 788.027 314.182 776.71 327.306C769.756 335.37 772.106 342.067 769.92 344.233C762.515 351.569 751.938 343.321 742.919 340.722C734.121 338.185 711.383 338.895 697.411 336.468C689.926 335.167 682.352 347.99 674.748 353.644C670.482 356.816 665.655 356.518 663.138 356.146C657.166 355.263 655.123 350.298 652.985 349.365C649.571 347.876 646.212 352.461 643.375 352.3C636.046 351.885 630.131 346.326 616.386 341.832C603.813 337.721 586.172 340.837 579.888 340.243C571.518 339.453 570.684 324.633 567.419 319.363C560.401 308.032 530.759 322.288 519.429 323.194C509.659 323.976 496.823 316.833 489.598 311.343C484.75 307.66 478.022 302.536 466.043 298.128C456.178 294.497 450.293 289.865 444.263 286.572C441.832 285.245 438.04 283.084 430.022 278.172C416.307 269.772 403.904 259.361 394.571 254.475C384.744 249.331 369.479 253.806 350.731 252.155C328.24 250.175 323.631 242.588 311.304 244.159C306.113 244.821 303.527 247.761 301.972 249.977C300.19 252.516 297.849 259.161 293.825 266.677C290.22 273.411 277.59 274.307 269.399 273.764C262.11 273.281 257.132 268.34 255.2 265.878C250.478 259.861 261.466 241.159 264.907 230.758C268.417 220.15 262.768 209.293 259.342 202.412C257.277 198.264 251.166 199.357 248.538 195.875C243.468 189.157 244.063 176.952 246.114 166.286C247.372 159.747 252.513 154.045 255.328 147.955C255.911 146.695 257.171 146.072 258.445 146.317C266.046 147.782 268.197 158.837 270.467 161.747C280.379 174.45 283.557 119.205 290.527 110.668C297.536 102.082 302.71 96.2206 308.436 80.7546C311.079 60.1321 313.215 45.4944 315.22 42.2281C316.386 40.4507 317.854 38.4301 321.59 35.7036" stroke="#FDFDFD" stroke-width="5" stroke-linecap="round"/>
<path d="M4.76047 245.873C4.44142 240.94 3.8985 229.574 4.89619 225.492C6.61908 218.442 18.9179 219.569 22.6196 215.927C24.4143 214.162 25.2727 211.86 24.8025 209.063C22.6933 196.514 16.0498 191.86 14.3337 189.049C13.8682 188.286 13.043 190.045 12.3436 189.256C9.57263 186.127 9.70419 177.297 10.9203 169.619C12.6618 158.623 28.9412 161.68 42.4312 155.194C53.1716 150.031 62.4188 145.102 68.2795 138.305C82.2611 122.09 84.5588 107.728 91.012 100.09C99.9999 89.4517 115.564 88.1654 125.676 80.0763C138.934 69.4701 147.896 60.5303 155.59 61.7944C182.66 66.2422 193.241 65.8667 207.568 61.9857C210.448 61.2056 206.527 72.0452 205.317 80.1777C204.748 84.001 205.847 88.075 205.156 92.4566C203.202 104.838 185.428 110.313 171.737 117.243C168.844 118.707 168.802 121.936 169.105 124.124C169.685 128.313 173.217 131.084 175.388 133.828C180.329 140.072 170.419 147.711 168.942 150.632C166.29 155.871 179.327 156.936 181.925 158.464C192.545 164.713 159.815 183.301 156.968 187.947C149.743 199.739 160.414 213.837 161.26 216.792C163.801 225.665 143.521 236.352 131.951 249.967C129.638 252.689 131.145 256.261 132.353 257.878C133.562 259.495 135.554 259.705 136.737 260.652C137.921 261.599 138.235 263.277 134.606 264.989C124.008 269.988 109.708 270.563 98.0602 270.985C78.6783 271.689 68.9404 264.234 42.9892 261.914C33.768 261.089 19.6902 258.652 10.5198 255.313C8.74571 253.07 6.91518 250.373 4.93157 247.693C4.01147 246.396 3.26702 245.226 2.5 244.339" stroke="#FDFDFD" stroke-width="5" stroke-linecap="round"/>
<path d="M1790.98 127.185C1787.25 127.394 1776.94 129.078 1771.76 132.149C1766.82 135.082 1763.94 144.412 1754.44 152.095C1742.52 161.741 1730.48 175.989 1719.04 189.852C1713.35 196.739 1703.36 200.976 1692.08 206.809C1681.9 212.076 1673.9 215.087 1672.13 216.982C1669.59 219.698 1671.08 224.291 1671.24 227.616C1671.43 231.749 1659.46 236.775 1640.96 243.162C1625.9 248.363 1618.88 258.798 1614.97 264.776C1612.5 268.541 1599.15 277.483 1578.5 290.948C1565.09 299.695 1551.71 310.806 1538.24 325.982C1524.38 341.598 1524.36 351.209 1523.05 363.378C1522.57 367.894 1520.91 371.141 1521.11 372.824C1521.56 376.623 1536.8 360.378 1551.86 343.801C1565.26 329.047 1568.47 321.232 1579.62 314.42C1589.04 308.662 1595.9 299.981 1603.08 293.211C1618.7 278.499 1626.6 271.73 1636.24 265.159C1643.12 260.465 1654.32 256.68 1662.1 252.956C1668.88 249.709 1678.28 242.603 1686.5 235.624C1693.84 229.387 1698.22 225.206 1705.4 216.194C1716 202.894 1729.41 196.446 1739.5 189.319C1750.03 181.894 1758.23 171.625 1769.53 158.51C1776.06 150.445 1782.41 139.913 1784.49 133.941C1784.76 132.378 1784.97 130.676 1785.49 126.985" stroke="#FDFDFD" stroke-width="5" stroke-linecap="round"/>
<path d="M642.278 1074.92C640.789 1067.05 637.553 1048.31 635.518 1038.81C635.044 1036.59 634.975 1034.99 634.016 1033.53C629.236 1026.25 619.744 1024.23 610.994 1014.91C609.052 1012.84 608.877 1011.25 608.972 1009.47C609.808 993.923 634.029 978.374 640.719 970.267C648.893 960.363 661.685 949.801 673.37 939.39C680.223 933.283 687.625 930.671 696.202 928.561C702.423 927.032 718.252 923.477 739.479 918.706C753.915 915.461 762.93 911.966 773.734 908.071C791.683 901.601 804.14 893.809 810.158 892.097C824.717 887.957 842.173 876.245 855.493 870.455C870.348 863.998 876.476 856.67 882.467 852.719C887.65 849.3 897.523 854.232 908.923 857.081C912.166 857.891 915.621 859.818 917.615 862.096C924.494 869.956 917.785 882.454 919.295 890.38C919.772 892.884 924.434 894.439 925.436 896.884C930.686 909.687 911.073 922.832 911.578 932.257C911.706 934.638 912.527 936.596 912.105 938.251C911.26 941.572 906.75 943.3 902.942 944.57C900.208 945.483 894.814 943.811 887.898 941.373C883.169 939.706 881.82 936.043 881.073 934.731C877.289 928.091 877.521 950.998 879.154 958.463C881.594 969.616 884.6 987.614 885.992 996.161C888.083 1009.01 889.366 1016.53 897.025 1026.4C901.063 1031.6 913.361 1031.31 927.512 1030.97C939.574 1030.68 952.489 1028.93 964.713 1029.51C971.371 1029.83 978.461 1030.3 987.732 1032.14C995.015 1033.6 1011.65 1039.54 1033.6 1046.13C1044.1 1049.29 1047.83 1051.65 1055.65 1054.78C1085.4 1066.67 1092.97 1064.05 1095.24 1065.63C1096.26 1066.89 1096.99 1069.09 1096.25 1070.44C1095.52 1071.78 1093.28 1072.2 1090.64 1073.27" stroke="#FDFDFD" stroke-width="5" stroke-linecap="round"/>
</svg>
