<svg width="3946" height="2407" viewBox="0 0 3946 2407" fill="none" xmlns="http://www.w3.org/2000/svg">
<path d="M346.44 1863.03C348.845 1861.8 359.5 1856.38 373.109 1857.66C386.918 1858.96 403.88 1874.48 419.03 1883.63C421.705 1885.25 424.124 1886.43 425.724 1885.71C435.666 1881.22 430.246 1860.63 437.125 1848.54C448.008 1829.42 472.892 1834.67 486.927 1831.97C498.7 1829.7 497.276 1812.51 498.608 1805.88C501.181 1793.06 484.225 1784.44 480.011 1771.51C478.889 1768.06 479.509 1764.26 477.557 1763.22C466.188 1757.14 455.412 1772.37 444.687 1774.94C431.323 1778.13 406.998 1741.28 388.889 1722.37C383.113 1716.33 370.676 1716.9 358.254 1718.23C352.591 1718.83 348.516 1721.24 346.619 1725.12C338.495 1741.72 351.011 1754.27 357.085 1764.72C363.573 1775.89 361.476 1790.45 356.077 1803.57C351.328 1815.09 343.751 1822.8 338.348 1826.55C332.368 1830.71 325.036 1831.8 318.886 1833.01C304.484 1835.82 301.886 1868.61 292.996 1889.55C287.001 1903.67 307.482 1918.25 316.602 1924.81C327.187 1932.43 321.053 1960.38 328.472 1984.77C334.357 2004.11 325.911 2034.06 316.309 2056.52C303.281 2086.99 295.383 2100.16 283.553 2109.79C264.314 2125.45 244.618 2125.92 234.503 2129.84C232.232 2130.72 230.56 2125.7 229.436 2122.12C228.313 2118.53 227.825 2114.63 224.767 2121.63C205.06 2166.71 210.305 2182.86 201.838 2194.3C190.318 2209.88 163.827 2193.76 141.871 2198.73C118.17 2204.09 90.4147 2238.39 73.477 2248.04C60.6148 2255.36 47.7212 2262.48 31.1087 2281.5C26.6454 2286.61 25.7831 2292.77 26.4667 2297.06C27.1503 2301.36 30.2766 2304.24 33.2097 2305.97C38.3797 2309.01 45.3615 2308.67 49.606 2308.67C58.5872 2308.67 21.5231 2315.42 5.16935 2326.85C2.14103 2328.96 2.18687 2332.66 2.89208 2335.83C3.5973 2339 5.76166 2342.37 9.8827 2344.95C27.786 2356.14 39.7867 2355.3 43.915 2358.81C53.2478 2366.74 40.9172 2385.15 44.9108 2392.79C48.4075 2399.48 57.8897 2401.94 67.2212 2403.51C75.7783 2404.96 82.6888 2399.22 87.2981 2395.04C97.4802 2385.82 93.8766 2345.26 101.704 2320.17C102.941 2316.2 103.789 2313.03 102.811 2310.18C98.7129 2298.2 83.141 2293.28 77.2863 2288.12C75.5676 2286.6 81.35 2284.41 85.1379 2283.9C91.7512 2283 96.9492 2286.29 101.671 2289.31C104.016 2290.81 107.115 2290.63 110.045 2287.21C125.206 2269.49 130.435 2256.16 141.745 2251.69C147.711 2249.33 154.272 2252.63 159.483 2251.78C171.784 2249.76 177.322 2236.39 188.144 2234.64C193.884 2233.71 200.416 2239.22 205.26 2245.15C215.514 2257.7 200 2270.79 202.904 2276.74C205.429 2281.9 211.645 2283.69 216.976 2285.39C222.186 2287.05 228.158 2286.86 236.021 2284.41C248.14 2280.65 256.339 2270.63 261.192 2264.48C263.403 2261.68 264.122 2258.82 263.52 2255.85C260.504 2240.99 246.893 2233.91 245.766 2228.14C245.221 2225.34 247.302 2222.6 250.21 2221.21C253.118 2219.81 257.446 2219.79 260.879 2220.98C267.356 2223.23 271.118 2228.98 275.355 2231.65C297.961 2245.9 340.334 2201.9 348.357 2188.22C350.209 2185.06 350.317 2181.94 351.285 2181.76C354.665 2181.11 356.137 2191.99 358.797 2196.35C368.362 2212.02 370.231 2166.59 378.338 2148.22C384.67 2133.87 381.157 2117.57 375.118 2102.13C369.542 2087.88 375.607 2066.63 384.115 2050.62C389.777 2039.97 397.003 2026.89 398.233 2003.25C399.168 1985.27 388.67 1970.23 382.114 1955.66C374.401 1938.52 368.949 1927.82 358.727 1919.16C354.004 1915.17 347.987 1914.23 346.113 1910.42C344.253 1906.64 351.061 1902.41 351.297 1896.88C351.84 1884.14 341.69 1875.8 340.942 1870.27C340.561 1867.45 341.647 1864.5 343.342 1864.67C358.422 1866.15 365.142 1900.41 381.32 1919.31C391.929 1931.71 425.22 1936.68 474.129 1938.06C490.459 1938.52 501.927 1927.36 530.673 1901.08C554.344 1879.44 593.651 1837.97 617.626 1814.43C647.598 1784.99 662.245 1777.31 680.387 1772.02C728.843 1757.88 757.283 1771.05 803.651 1782.93C840.741 1792.42 904.623 1811.75 958.55 1822.72C1012.48 1833.69 1054.32 1836.42 1081.74 1836.34C1120.99 1836.22 1145.71 1823.97 1176.58 1804.78C1195.47 1793.04 1217.73 1772.47 1234.42 1756.26C1251.1 1740.06 1260.72 1727.62 1279.47 1698.82C1298.22 1670.02 1325.81 1625.25 1344.03 1597.1C1369.26 1558.13 1389.45 1539.32 1409.98 1523.78C1426.21 1511.5 1453.66 1504.8 1509.73 1495.9C1547.65 1489.89 1605.86 1488.88 1646.3 1485.17C1708.18 1479.5 1739.52 1468.29 1758.8 1458.53C1778.11 1448.74 1793.17 1433.62 1806.26 1418.08C1819.93 1401.87 1837.8 1358.33 1862.78 1304.44C1877.71 1272.25 1893.93 1260.66 1904.58 1252.55C1915.64 1244.13 1934.18 1237.26 1974.04 1229.51C2001.86 1224.11 2046.12 1222.01 2075.65 1220.49C2139.68 1217.18 2163.03 1230.59 2180.42 1239.95C2193.6 1247.04 2231.81 1256.79 2278.56 1268.57C2295.78 1272.9 2299.57 1274.81 2342.67 1288.3C2385.78 1301.79 2468.02 1327.05 2520.13 1341.38C2591.07 1360.89 2615.16 1361.08 2647.31 1365.29C2676.16 1369.06 2730.21 1377.91 2764.22 1383.93C2832.68 1396.05 2861.4 1401.16 2876.03 1397.98C2885.3 1395.97 2888.22 1384.93 2890.15 1386.38C2893.74 1389.08 2892.09 1402.55 2896.44 1403.12C2900.78 1403.69 2908.47 1392.68 2914 1391.99C2926.57 1390.4 2929.96 1416.77 2937.96 1425.02C2941.38 1428.54 2945.48 1428.46 2949.86 1426.15C2954.25 1423.83 2959.3 1418.71 2964.3 1417.39C2981.59 1412.83 2997.82 1420.84 3017.73 1414.14C3028.14 1410.63 3034.2 1422.62 3040.74 1425.05C3056.52 1430.91 3071.59 1419.14 3083.25 1409.58C3088.35 1405.4 3093.14 1396.14 3098.4 1391.74C3113.18 1379.39 3158.3 1402.76 3186.76 1419.83C3205.52 1431.09 3202.84 1454.79 3206.71 1468.14C3213.76 1492.53 3254.54 1490.04 3271.3 1514.77C3282.13 1530.76 3262.97 1554.82 3253.7 1573.72C3244.24 1593.01 3246.64 1620.18 3249.17 1638.45C3249.75 1642.63 3253.39 1645.73 3257.88 1647.59C3267.99 1651.77 3278.91 1649.2 3286.06 1646.75C3299.71 1642.07 3309.25 1625.88 3318.27 1606.76C3322.2 1598.43 3325.55 1588.88 3331.49 1580.88C3335.54 1575.42 3344.48 1575.03 3351.15 1573.8C3360.26 1572.12 3334.26 1563.7 3332 1556.95C3325.77 1538.31 3353.74 1531.42 3371 1521.09C3390.84 1509.22 3421.2 1504.33 3444.84 1496.44C3458.96 1491.74 3472.78 1478.74 3481.33 1462.72C3485.79 1454.37 3485.24 1445.2 3487.64 1439.17C3494.44 1422.14 3540.17 1422.16 3561.06 1411.08C3583.18 1399.36 3552.72 1347.83 3548.61 1329.25C3546.97 1321.82 3552.01 1317.74 3557.24 1314.88C3568.46 1308.72 3578.78 1307.81 3586.75 1308.14C3613.37 1309.24 3621.52 1330.56 3664.81 1348.97C3698.92 1363.48 3723.56 1329.5 3725.98 1327.74C3744.71 1314.18 3698.26 1379.43 3698 1385.85C3697.85 1389.62 3699.2 1394.42 3701.73 1397.74C3704.27 1401.06 3708.36 1402.75 3715.04 1401.66C3748.53 1396.22 3761.38 1379.86 3765.02 1375.56C3780.17 1357.69 3771.34 1310.99 3785.74 1281.04C3802 1247.23 3805.61 1234.76 3805.12 1227.02C3804.88 1223.3 3801.7 1220.49 3798.01 1218.13C3794.31 1215.77 3789.43 1214.06 3785.46 1214.14C3781.48 1214.22 3778.55 1216.15 3776.92 1218.7C3768.86 1231.34 3768.4 1257.83 3769.11 1277.46C3769.45 1286.78 3764.95 1295.58 3758.81 1302.49C3753.69 1308.25 3745.51 1311.15 3736.29 1310.78C3707.58 1309.62 3683.24 1266.61 3672.06 1251.81C3662.07 1238.58 3672.49 1224.68 3670.53 1218.54C3668.27 1211.41 3656.78 1208.65 3645.71 1206.55C3617.52 1201.21 3582.94 1259.39 3566.59 1283.58C3557.85 1296.51 3552.04 1308.64 3546.14 1312.15C3543.76 1313.57 3541.21 1310.09 3540.08 1304.68C3533.27 1272.1 3556.12 1233.56 3562.62 1217.19C3567.52 1204.82 3576.29 1189.64 3612.77 1162.91C3635.9 1145.96 3685.07 1115.34 3714.64 1094.5C3736.32 1079.22 3736.89 1038.57 3742.6 1026.74C3752.08 1007.11 3775.95 994.226 3786.44 983.573C3788.24 981.746 3791.76 984.668 3794.33 988.775C3809.31 1012.73 3799.33 1063.13 3798.81 1087.26C3798.41 1105.59 3800.5 1131.77 3810.17 1148.13C3818.98 1163.04 3859.82 1139.57 3884.83 1126.98C3913.26 1112.66 3933.8 1095.68 3941.13 1082.27C3945.24 1074.76 3941.39 1065.38 3937.59 1058.37C3925.2 1035.5 3868.12 1050.99 3850.51 1056.1C3847.06 1057.1 3843.15 1057.56 3839.43 1056.35C3823.97 1051.29 3822.62 1018.35 3817.21 994.308C3813.06 975.82 3793.36 963.016 3764 951.032C3720.68 933.354 3683.72 935.247 3675.73 931.932C3668.82 929.068 3649.36 916.11 3614.74 898.77C3581.94 882.337 3552.64 872.958 3531.87 860.426C3493.39 837.212 3458.6 816.79 3432.35 815.556C3427.64 815.335 3426.76 822.41 3427.45 828.251C3430.41 853.325 3442.97 865.676 3444.18 877.438C3444.72 882.7 3441.01 886.554 3436.21 888.167C3404.18 898.932 3364.24 861.028 3349.06 847.937C3326.35 828.356 3282.6 826.982 3225.26 825.331C3210.83 824.916 3204.76 830.299 3200.09 833.688C3195.21 837.232 3191.7 845.566 3189.22 856.465C3182 888.11 3228.43 920.328 3241.86 940.886C3252.43 957.055 3244.55 975.494 3240.85 991.428C3238.94 999.618 3238.1 1006.64 3240.88 1012.94C3251.88 1037.87 3274.29 1067.29 3273.31 1080.96C3272.26 1095.84 3250.46 1106.92 3246.18 1121.88C3240.75 1140.81 3281.02 1166.82 3289.65 1184.92C3296.37 1199.02 3281.81 1215.03 3261.28 1238.93C3256.71 1244.24 3253.73 1245.9 3247.47 1246.16C3231.42 1246.81 3218.72 1241.72 3213.07 1236.08C3194.58 1217.65 3194.56 1185.91 3185.72 1135.58C3183.79 1124.61 3181.28 1119.84 3177.96 1116.72C3162.15 1101.85 3112.46 1118.26 3087.57 1115.94C3060.75 1113.44 3022.43 1081.15 3010.83 1062.39C2999.18 1043.57 2949.85 1060.9 2930.69 1066.01C2926.73 1067.07 2922.94 1065.05 2919.84 1061.98C2901.6 1043.96 2914.77 1005.06 2916.04 992.111C2916.59 986.516 2899.28 997.612 2886.12 1002.05C2873.44 1006.33 2864.34 977.697 2857.81 954.246C2852.3 934.448 2856.51 916.589 2863.65 901.836C2882.83 862.174 2926.89 831.35 2953.6 813.857C2971.4 802.194 2986.94 790.924 2996.16 780.606C3010.56 764.489 3002.76 747.085 3004.2 738.905C3007.27 721.397 3028.78 786.058 3057.91 802.776C3067.53 808.292 3077.65 805.855 3086.26 804.876C3092.96 804.114 3100.97 797.517 3110.19 788.917C3114.42 784.972 3115.56 779.829 3113.99 775.003C3105.07 747.636 3062.68 741.852 3051.53 729.401C3048.72 726.258 3047.11 721.673 3048.38 714.902C3054.55 682.141 3071.51 665.985 3080.05 647.251C3087.56 630.781 3071.72 605.167 3065.87 589.945C3063.32 583.333 3067.14 574.788 3073.79 565.697C3090.91 542.3 3130.82 533.159 3151.65 534.845C3175.17 536.747 3183.72 585.102 3188.51 603.321C3192.36 618.007 3183.24 640.297 3174.37 657.966C3164.27 678.072 3147.52 700.564 3141.94 721.228C3140.66 725.967 3142.27 730.21 3143.84 733.638C3146.87 740.238 3154.87 744.121 3165.76 747.153C3208.11 758.941 3256.45 722.985 3268.06 724.997C3304.83 731.373 3316.39 754.242 3346.23 749.62C3374.36 745.261 3391.76 729.892 3397.34 723.993C3399.99 721.194 3401.48 718.095 3402.34 714.635C3403.21 711.176 3403.21 707.273 3400.89 702.702C3384.77 670.938 3335.26 659.938 3330.95 651.935C3316.12 624.419 3387.17 646.08 3393.23 640.821C3402.6 632.7 3394.46 612.892 3385.14 595.692C3365.3 559.089 3318.4 547.122 3282.19 538.419C3271.13 535.763 3253.55 527.834 3228.73 508.886C3178.16 470.29 3175.96 446.414 3139.18 431.322C3083.12 408.319 3050.72 405.241 3040.26 398.249C3030.1 391.452 3029.98 373.273 3029.34 356.553C3028.23 327.436 3047.54 312.859 3045.95 307.811C3044.93 304.599 3036.32 305.445 3034.84 301.413C3030.74 290.264 3048.8 276.013 3056.02 266.411C3058.18 263.544 3048.74 261.849 3048.18 257.139C3046.48 242.872 3068.38 228.927 3076.93 217.491C3079.97 213.421 3071.4 209.061 3071.43 201.813C3071.53 182.415 3092.08 164.128 3100.16 149.946C3110.75 131.365 3095 110.441 3084.04 91.1083C3079.23 82.6339 3090.82 69.0556 3097 55.0376C3099.6 49.1223 3089.36 43.4588 3087.57 37.1011C3083.77 23.6624 3096.93 13.203 3099.1 9.38532C3109.56 -8.97028 3043.55 14.2743 3022.71 22.435C3005.17 29.3035 2983.75 35.4305 2970.77 38.6533C2968.11 39.3163 2973.72 39.1003 2972.42 38.8455C2971.12 38.5908 2962.82 38.5839 2959.26 39.903C2944.18 45.4871 2930.76 73.4836 2916.05 91.1179C2903.47 106.198 2884.73 108.872 2881.35 115.413C2879.78 118.456 2885.96 122.434 2879.85 128.182C2873.74 133.929 2857.07 141.707 2848.47 147.397C2839.87 153.087 2839.86 156.454 2843.67 160.533C2847.48 164.612 2855.1 169.302 2856.95 174.243C2858.8 179.184 2854.65 184.234 2848.48 189.601C2834.98 201.362 2791.28 206.27 2737.12 206.014C2699.31 205.834 2637.73 210.43 2608.18 220.075C2599.18 223.015 2595.72 237.656 2592.13 250.38C2586.25 271.24 2596.33 291.765 2591.29 303.399C2589.93 306.537 2602.63 308.832 2592.65 316.022C2557.65 341.229 2521.98 348.272 2519.02 355.042C2508.77 378.53 2535.54 413.413 2529.52 448.871C2527.29 462.021 2554.86 474.319 2565.71 486.492C2567.89 488.948 2565.59 493.627 2573.86 492.13C2582.13 490.634 2598.91 483.677 2606.7 482.615C2614.48 481.553 2612.76 486.596 2609.43 491.96C2602.23 503.549 2595.22 511.199 2595.18 518.814C2595.04 550.514 2654.67 566.051 2673.51 575.324C2687.01 581.972 2686.77 606.38 2686.91 623.99C2687.04 641.865 2676.69 654.018 2671.02 658.719C2661.54 666.584 2640.05 644.05 2620.2 626.786C2590.01 600.527 2597.71 559.648 2597.72 540.759C2597.72 536.835 2595.53 534.221 2592.94 532.473C2574.71 520.134 2543.33 515.964 2515.96 494.123C2472.62 459.531 2444.28 425.319 2433.09 417.809C2425.69 412.851 2398.74 414.437 2361.74 414.612C2327.22 414.776 2312.62 367.735 2293.98 361.754C2279.81 357.207 2271.43 386.433 2252.25 403.285C2231.03 421.936 2218.91 440.389 2211.44 450.901C2198.4 469.253 2182.25 491.802 2168.85 513.023C2158.2 529.896 2127.73 558.256 2089.92 592.74C2067.27 613.404 2052.41 628.098 2045.77 648.886C2038.67 671.14 2069.9 677.944 2074.04 691.656C2076.97 701.328 2076.48 710.031 2080.7 714.76C2087.6 722.498 2100.02 720.255 2106.08 717.813C2109.92 716.265 2111.65 708.548 2114.58 707.203C2132.21 699.102 2130.65 759.399 2130.14 787.364C2129.51 822.582 2138.35 861.437 2144.79 887.65C2148.32 902.011 2143.72 914.475 2137.34 927.939C2121.78 960.765 2074.21 968.453 2074.9 976.23C2077.49 1005.2 2100.62 1020.66 2100.74 1038.25C2100.88 1058.63 2093.93 1073.56 2099.22 1087.47C2104.82 1102.19 2114.43 1126.72 2122.14 1143.7C2129.44 1159.79 2123.93 1187.99 2140.64 1213.13C2144.58 1218.18 2146.26 1220.35 2148.45 1222.66C2150.64 1224.98 2153.29 1227.38 2160.38 1230.59" stroke="white" stroke-width="5" stroke-linecap="round"/>
</svg>
