<svg width="2711" height="1782" viewBox="0 0 2711 1782" fill="none" xmlns="http://www.w3.org/2000/svg">
<path d="M334.952 1244.92C336.983 1243.72 345.131 1235.47 352.489 1229.28C358.397 1224.32 369.346 1232.21 379.408 1239.78C387.82 1246.12 395.966 1250.63 402.084 1251.57C417.267 1253.88 423.925 1239.74 428.8 1230.07C433.595 1220.56 430.432 1211.05 429.564 1203.19C429.189 1199.8 429.717 1197.56 436.137 1196.83C454.928 1194.7 469.605 1195.76 471.906 1190.67C478.519 1176.07 458.35 1159.66 458.483 1147.27C458.557 1140.38 462.235 1132.66 462.316 1125.48C462.348 1122.69 459.839 1121.9 457.414 1122.55C445.245 1125.83 437.374 1137.51 429.304 1141.72C422.604 1145.21 410.758 1136.82 401.466 1129.29C387.3 1117.81 377.533 1107.07 368.184 1102.38C354 1095.26 345.526 1097.7 341.209 1098.53C332.25 1100.27 333.925 1120.6 336.617 1172.43C337.153 1182.74 335.602 1184.78 334.129 1186.24C331.339 1189.02 323.7 1187.02 313.22 1186.62C300.902 1186.15 300.654 1201.78 300.026 1205.36C299.244 1209.8 305.546 1213.54 306.821 1218.3C311.564 1236 274.05 1244.06 274.2 1250.6C274.579 1267.13 295.473 1271.86 308.509 1277.57C313.184 1279.62 316.803 1284.47 320.975 1290.42C322.943 1293.23 323.965 1296.04 322.689 1299.37C316.814 1314.71 309.62 1319.93 310.011 1330.05C311.03 1356.48 317.437 1380.38 304.863 1410.31C297.889 1426.91 300.271 1436.38 301.048 1445.16C302.12 1457.28 283.911 1466.85 271.335 1477.56C261.633 1485.83 250.841 1490.96 235.3 1501.09C231.359 1503.66 227.525 1504.09 225.074 1503.59C222.623 1503.08 221.424 1501.19 221.229 1498.77C220.166 1485.57 236.885 1477.48 236.79 1474.62C236.599 1468.88 222.54 1477.5 216.564 1482.94C206.767 1491.86 224.907 1509.71 225.172 1518.84C225.453 1528.52 219.058 1536.14 207.833 1548.58C201.285 1555.84 188.167 1559.86 164.391 1565.49C137.745 1571.79 118.955 1575.89 105.629 1581C90.1775 1586.92 76.7438 1604.02 47.757 1630.19C30.3169 1645.94 11.2162 1671.1 4.85535 1686.78C1.07062 1696.11 5.57104 1712.4 7.20022 1725.22C9.68271 1744.75 25.1008 1758.43 37.2647 1767.36C46.4766 1774.12 53.132 1777.26 58.4057 1778.71C60.9002 1779.39 63.3419 1778.28 65.3189 1775.78C78.2164 1759.49 76.314 1724.09 78.3063 1710.75C78.8907 1706.84 80.6005 1702.36 80.2517 1694.53C79.0992 1668.66 64.005 1663.96 61.545 1660.42C59.3858 1657.31 70.5031 1657.19 76.204 1658.03C81.6222 1658.84 84.8409 1665.01 87.3116 1670.03C90.9669 1677.45 90.2988 1690.02 94.8104 1698.94C96.7382 1702.75 102.56 1704.24 108.174 1704.83C113.899 1705.44 117.916 1698.36 120.642 1693.36C123.547 1688.04 121.835 1681.93 123.364 1677.88C124.885 1673.84 128.3 1670.17 134.239 1666.97C142.919 1662.3 151.661 1664.95 155.234 1663.23C171.3 1655.5 165.488 1637.46 165.4 1631.85C165.357 1629.12 163.776 1626.75 161.447 1625.26C156.315 1621.98 150.281 1622.9 145.116 1624.76C128.645 1630.69 124.356 1642.47 117.518 1648.2C113.657 1651.43 107.919 1652.73 102.485 1653.66C99.8269 1654.12 97.2211 1653.07 95.0421 1652.03C92.863 1651 91.1509 1649.63 91.8725 1647.64C97.4148 1632.36 124.784 1631.3 136.659 1623.51C147.474 1616.42 157.521 1610.21 166.938 1607.41C168.814 1606.85 170.514 1606.04 172.734 1606.44C177.994 1607.39 183.982 1611.62 190.028 1615.02C200.447 1620.87 195.78 1637.66 196.184 1647.46C196.348 1651.45 199.464 1653.03 206.647 1653.9C213.831 1654.77 225.762 1654.77 232.5 1653.06C239.237 1651.35 240.419 1647.92 240.942 1644.87C243.08 1632.42 235.925 1618.16 238.208 1608.2C239.798 1601.27 233.461 1594.78 230.86 1590.12C229.703 1588.05 230.646 1585.81 232.003 1585.33C235.419 1584.14 239.84 1592.97 244.7 1600.51C247.076 1604.2 251.436 1605.65 256.191 1605.9C273.792 1606.84 288.784 1601.15 291.679 1598.05C294.565 1594.96 296.283 1588.55 298.923 1583.95C299.28 1583.32 298.298 1590.24 300.496 1595.78C301.37 1597.97 305.06 1596.73 307.129 1595.51C309.198 1594.3 310.38 1592.59 310.989 1590.68C314.5 1579.66 309.86 1564.91 312.059 1560.58C313.075 1558.58 317.297 1560.01 319.458 1559.16C321.62 1558.31 322.464 1555.91 322.47 1553.82C322.5 1544.62 308.479 1541 307.145 1538.07C306.325 1536.27 310.732 1533.43 313.986 1532.7C327.105 1529.73 338.027 1537.94 345.554 1540.91C353.548 1544.07 346.757 1559.21 345.104 1566.45C344.392 1569.57 345.665 1571.83 347.703 1570.99C361.091 1565.48 369.624 1547.55 377.979 1535.31C379.816 1532.62 378.417 1528 376.703 1525.28C370.397 1515.29 356.502 1516.87 349.979 1506.34C345.055 1498.39 355.962 1486.97 362.714 1471.85C368.468 1458.97 354.709 1442.54 352.659 1433C350.722 1423.99 367.222 1423.99 370.795 1420.46C382.291 1409.11 373.133 1385.98 374.852 1372.33C377.904 1348.09 362.138 1328.26 357.303 1304.9C354.481 1291.27 353.769 1278.72 350.407 1276.56C348.675 1275.45 346.532 1274.91 344.446 1274.9C340.254 1274.87 336.477 1277.77 333.455 1281C330.603 1284.05 329.722 1288.51 329.359 1290.55C328.898 1293.15 333.943 1285.02 337.342 1282.52C340.993 1279.83 348.235 1278.62 366.148 1275.68C379.463 1273.49 401.521 1271 436.157 1264.09C470.794 1257.19 517.383 1246.23 595.801 1222.28C674.219 1198.33 783.054 1161.72 841.062 1141.92C899.071 1122.11 902.953 1120.23 912.633 1117.12C922.314 1114.01 937.675 1109.73 973.018 1101.62C1008.36 1093.51 1063.22 1081.69 1092.58 1075.44C1121.94 1069.18 1124.13 1068.84 1124.48 1070.26C1125.63 1074.91 1121.15 1080.39 1120.63 1084.64C1120.38 1086.69 1121.12 1088.56 1122.31 1090.19C1127.31 1097.04 1165.45 1101.06 1193.32 1103.77C1219.14 1106.28 1236.36 1115.91 1248.84 1125.05C1257.9 1131.69 1276.56 1139.16 1328.66 1152.83C1367.97 1163.15 1434.62 1175.26 1470.83 1182.31C1507.03 1189.36 1511.08 1189.7 1548.65 1195.36C1586.23 1201.02 1657.19 1211.99 1703.71 1218.41C1750.23 1224.82 1770.15 1226.34 1779.73 1226.01C1789.3 1225.68 1787.93 1223.45 1787.06 1221.19C1786.18 1218.93 1785.84 1216.71 1787.18 1215.97C1788.52 1215.24 1791.56 1216.06 1793.89 1217.84C1802.84 1224.68 1808.92 1240.87 1829.53 1251.82C1840.27 1257.54 1860.55 1254.16 1891.26 1246.57C1920.71 1239.3 1929.03 1229.79 1938.74 1224.93C1947.69 1220.46 1975.75 1238.64 1989.91 1249C2000.37 1256.66 2008.82 1271.53 2017.68 1284.63C2029.41 1301.95 2067 1299.23 2105.67 1300.01C2116.74 1300.23 2129.3 1301.44 2136.28 1304.66C2143.26 1307.88 2144.27 1313.28 2144.28 1318.94C2144.3 1330.37 2140.66 1340.12 2137.13 1346.68C2135.55 1349.62 2132.74 1350.71 2130.05 1350.63C2118.25 1350.3 2112.32 1329.04 2105.48 1318.39C2104.14 1316.29 2099.9 1317.67 2097.88 1318.68C2094.36 1320.45 2094.13 1327.35 2094.54 1334.58C2094.91 1341.16 2102.27 1346.79 2106.1 1353.26C2111.94 1363.12 2094.11 1370.49 2091.22 1379.7C2089.45 1385.38 2092.82 1390.8 2093.59 1394.88C2095.65 1405.84 2077.82 1426.98 2073.87 1443.55C2073.3 1445.98 2074.12 1447.9 2076.65 1449.02C2083.43 1452.02 2090.81 1450.14 2094.81 1447.73C2104.8 1441.71 2104.79 1425.47 2117.54 1411.43C2128.93 1398.91 2148.22 1402.58 2166.55 1398.52C2173.32 1397.03 2177.26 1393.59 2179.14 1389.8C2180.07 1387.91 2178.64 1385.32 2177.25 1383.49C2174.57 1379.93 2169.82 1378.37 2166.61 1375.7C2157.89 1368.47 2184.56 1348.35 2194.96 1339.12C2204.35 1330.79 2218.01 1324.1 2230.16 1317.51C2239.93 1312.2 2240.08 1300.75 2245.94 1288.22C2252.44 1274.32 2281.04 1272.55 2305.93 1266.57C2322.24 1262.66 2335.02 1256.8 2345.86 1249.38C2357.56 1241.37 2345.57 1222.27 2339.54 1195.93C2336.54 1182.83 2336.74 1173.11 2338.77 1166.81C2342.86 1154.14 2360.71 1154.24 2373.76 1152.07C2386.39 1149.97 2396.57 1152.29 2400.14 1155.52C2408.83 1163.36 2409.85 1184.43 2416.34 1196.34C2421.81 1206.37 2445.7 1209.56 2462.86 1208.64C2474.06 1208.04 2482.15 1198.7 2487.18 1192.24C2498.12 1178.15 2493.77 1165.67 2493.85 1165.24C2498.19 1140.99 2492.37 1214.77 2494.74 1227.33C2495.37 1230.66 2497.62 1234.04 2499.33 1236.88C2501.05 1239.72 2502.74 1241.74 2508.08 1240.73C2522.99 1237.91 2532.6 1228.98 2534.47 1223.81C2542.45 1201.76 2541.62 1167.61 2549.54 1158.87C2561.57 1145.59 2562.61 1135.62 2565.84 1126.79C2568.29 1120.09 2572.83 1110.73 2575.04 1100.53C2575.94 1096.42 2574.2 1094.11 2572.73 1092.45C2566.68 1085.64 2551.08 1081.31 2540.4 1080.79C2526.41 1080.1 2544.13 1115.08 2543.2 1128.76C2542.79 1134.78 2535.16 1136.13 2531.36 1136.9C2523.39 1138.51 2514.26 1137.13 2504.4 1139.68C2501.79 1140.36 2499.22 1141.04 2496.78 1140.45C2486.24 1137.88 2474.54 1124.85 2463.14 1116.43C2453.86 1109.58 2438.71 1107.15 2428.16 1106.29C2424.49 1105.99 2424.8 1103.04 2427.16 1098.98C2433.24 1088.56 2440.98 1080.71 2444.72 1076.22C2446.39 1074.22 2447.12 1072.42 2444.73 1070.68C2427.39 1058.07 2406 1064.77 2394.59 1068.07C2381.01 1072.01 2371.45 1106.85 2356.41 1129.82C2342.55 1150.98 2325.39 1161.59 2322.71 1164.31C2314.5 1172.65 2335.63 1116.1 2346.76 1098.62C2356.16 1083.88 2363.98 1065.19 2369.88 1041.42C2374.72 1021.92 2376.46 1016.63 2379 1013.69C2385.34 1006.38 2414.1 1005.4 2433.37 1002.27C2441.78 1000.9 2447.72 995.008 2451.38 991.732C2461.5 982.671 2466.46 960.813 2473.37 951.015C2484.76 934.874 2506.47 911.888 2517.27 904.219C2527.26 897.125 2531.28 891.591 2533.83 888.398C2535.08 886.822 2536.71 885.718 2537.32 888.055C2543.34 911.041 2547.79 935.584 2553.59 953.975C2558.79 970.466 2555.99 987.748 2555.3 996.646C2554.96 1001 2552.71 1006.36 2552.68 1012.74C2552.66 1016.02 2556.04 1018.95 2558.69 1020.43C2561.34 1021.91 2564.05 1021.73 2566.11 1020.95C2577.12 1016.82 2591.5 1006.19 2614.39 992.976C2633.11 982.166 2658.74 980.044 2684.06 978.369C2695.45 977.616 2692.13 995.013 2692.78 997.554C2696.03 1010.19 2704.84 975.936 2707.51 965.461C2708.17 962.85 2707.26 960.029 2706.14 957.505C2700.59 944.986 2677.22 947.168 2666.4 948.953C2662.69 949.565 2657.38 950.226 2653.7 948.089C2645.9 943.554 2644.32 929.013 2639.92 918.55C2638.22 914.492 2634.33 914.761 2628.49 919.683C2622.65 924.604 2614.14 934.626 2610.44 935.252C2606.73 935.878 2608.08 926.803 2607.41 922.463C2606.73 918.122 2603.99 918.79 2600.52 920.485C2592.65 924.331 2585.8 928.675 2581.39 929.011C2572.4 929.697 2582.1 910.695 2581.5 907.813C2581.22 906.473 2576.96 908.828 2574.17 906.909C2559.93 897.114 2565.83 882.68 2563.94 878.602C2559.58 869.193 2543.38 889.528 2538.36 891.482C2528.6 895.288 2537.09 872.043 2537.6 866.696C2539.7 844.578 2493.53 835.445 2475.14 832.55C2455.82 829.508 2454.96 868.542 2447.8 875.005C2442.08 880.165 2437.47 861.688 2436 854.782C2433.86 844.76 2443.34 829.76 2450.95 818.35C2455.34 811.754 2431.66 821.584 2387.03 823.973C2375.17 824.608 2355.84 809.603 2329.05 788.194C2313.03 775.383 2315.91 760.285 2315.65 754.244C2314.56 728.594 2241.83 722.173 2231.52 718.987C2221.8 715.984 2247.79 745.836 2252.62 756.383C2258.03 768.186 2246.07 784.936 2242.11 790.985C2240.39 793.601 2237.8 794.164 2234.42 793.997C2209.24 792.751 2185.76 756.698 2165.74 741.896C2146.29 727.508 2126.57 728.791 2122.69 726.466C2100.91 713.434 2057.92 709.62 2050.41 708.944C2034.99 707.555 2021.97 723.832 2015.72 731.425C2011.94 736.014 2011.37 742.763 2012.89 749.648C2018.46 774.908 2049.15 805.061 2058.05 818.048C2060.13 821.097 2067.18 820.191 2069.45 822.396C2077.86 830.562 2062.23 844.519 2063.01 855.632C2063.88 867.97 2079.01 873.696 2089.67 884.021C2099.25 893.305 2103.59 905.246 2104.2 923.196C2104.85 942.603 2091.22 960.746 2067.96 984.33C2062.11 990.256 2056.92 991.892 2053.71 994.696C2045.21 1002.1 2084.83 1019.92 2094.74 1032.62C2103.21 1043.47 2106.77 1057.83 2106.18 1069.18C2105.08 1090.32 2095.54 1096.9 2093.73 1101.84C2092.55 1105.07 2084.5 1094.04 2077.68 1087.69C2073.72 1084 2069.08 1093.51 2065.47 1096.48C2060.27 1100.77 2049.41 1093.3 2040.23 1086.2C2026.71 1075.76 2023.43 1054.72 2009.3 1002.74C2006.4 992.069 2002.72 989.972 2000.28 988.395C1991.85 982.941 1980.22 986.451 1956.77 988.655C1943.24 989.927 1933.35 990.539 1922.51 985.13C1877.77 962.797 1856.74 939.185 1845.17 936.233C1826.85 931.558 1814.57 938.901 1802.1 946.664C1799.2 948.467 1796.91 950.492 1794.82 942.032C1788.21 915.28 1788.4 893.451 1786.33 889.913C1781.66 881.913 1767.18 876.698 1739.51 869.793C1734.56 868.559 1735.47 865.462 1737.5 862.943C1749.73 847.797 1764.42 826.934 1772.62 803.504C1778.78 785.934 1782.83 767.974 1791.79 754.61C1806.76 732.271 1828.82 721.228 1846.84 706.452C1860.3 695.421 1866.21 671.67 1871.27 650.691C1873.39 641.932 1872.9 634.05 1874.68 629.794C1875.26 628.416 1877.31 630.137 1878.93 634.095C1890.86 663.105 1880.89 700.008 1879.56 724.457C1879.32 728.917 1882 729.221 1884.89 729.393C1891.66 729.793 1897.87 728.532 1902.37 725.691C1914.4 718.109 1920.53 701.781 1930.55 690.382C1935.35 684.923 1951.83 693.924 1958.36 693.183C1964.89 692.442 1963.52 687.135 1959.14 681.576C1939.35 656.501 1919.43 652.809 1911.38 649.167C1907.22 647.284 1903.85 643.294 1901.5 638.041C1895.82 625.303 1900.34 617.187 1899.61 612.865C1897.87 602.56 1919.17 605.259 1925.81 597.505C1929.19 593.561 1929.42 587.354 1929.26 583.245C1928.75 570.516 1913.19 561.195 1913.13 544.258C1913.03 517.99 1922.15 504.508 1921.08 490.954C1920.39 482.211 1939.74 478.66 1952.6 474.594C1964.94 470.692 1982.83 482.592 1992.05 493.347C1996.81 498.906 1981.92 507.156 1977.51 515.578C1973.85 522.565 1975.3 529.678 1977.42 535.376C1982.02 547.744 1995.07 544.711 1997.03 545.302C1999.32 545.994 1992.11 549.98 1989.94 553.466C1988.93 555.083 1989.64 557.121 1991.33 558.415C1993.02 559.709 1996.06 560.384 1998.97 559.448C2010.67 555.691 2012.3 540.752 2017.75 531.872C2018.8 530.159 2021.32 530.645 2023.2 531.064C2033.81 533.418 2040.43 551.554 2042.41 564.508C2045.67 585.816 2037.16 592.844 2036.83 600.347C2036.75 602.322 2038.43 603.923 2034.84 606.987C2024.22 616.052 2011.48 622.338 2006.3 628.55C2002.5 633.099 2001.77 638.88 2001.25 645.087C2000.72 651.444 2002.76 657.638 2006.41 662.407C2009.44 666.364 2015.7 666.19 2021.32 665.761C2033.11 664.859 2038.22 650.501 2043.07 641.645C2045.09 637.967 2052.53 643.442 2069.53 651.913C2108.32 671.233 2140.8 682.68 2153.09 684.738C2179.05 689.081 2204.14 681.046 2230.12 669.445C2235.36 667.107 2239.34 666.654 2240.31 665.188C2242.44 661.983 2234.89 657.491 2230.4 654.64C2219.04 647.42 2199.29 647.468 2183.16 636.132C2168.48 625.819 2222.46 627.922 2224.85 624.042C2230.14 615.423 2199.31 601.293 2157.32 584.299C2148.71 580.812 2145.23 577.808 2142.78 575.113C2140.32 572.417 2139.13 569.849 2139.1 566.729C2139.07 563.608 2140.25 560.012 2143.47 558.075C2161.39 547.305 2188.13 559.524 2202.91 560.584C2208.13 560.96 2208.38 555.252 2207.61 549.396C2203.91 521.217 2197.8 493.291 2189.82 480.502C2177.4 460.59 2132.08 472.309 2117.9 464.44C2104.51 457.008 2097.32 439.795 2088.34 431.844C2075.31 420.306 2040.45 429.542 2023.53 423.151C1993.35 411.757 1976.55 392.551 1969.64 390.237C1950.06 383.675 1958.2 364.794 1946.69 352.057C1942.93 347.901 1934.16 349.946 1929.57 347.909C1913.26 340.673 1909.82 311.195 1900.84 265.716C1897.74 250.018 1892.46 244.406 1893.12 238.806C1894.05 230.964 1900.61 225.723 1902.14 222.014C1903.73 218.156 1896.96 214.143 1896.9 207.772C1896.72 188.654 1904.92 175.448 1912.07 160.664C1915.71 153.131 1921.12 146.721 1920.25 138.705C1919.68 133.452 1909.48 129.148 1909.9 121.109C1910.98 100.112 1929.49 89.4582 1931.11 85.5799C1936.46 72.765 1923.13 54.0328 1914.28 45.3191C1908.4 39.5213 1919.9 28.6103 1925.82 19.3441C1931.03 11.175 1904.31 12.148 1899.37 9.39047C1897.57 8.3868 1899.04 5.94807 1897.76 5.06226C1885.22 -3.64372 1851.14 24.6423 1836.12 41.1362C1825.97 52.2802 1820.73 64.6839 1809.61 68.9983C1803.26 71.4628 1795.45 81.9001 1789.3 82.8289C1778.08 84.5222 1772.4 62.898 1765.7 54.2424C1755.39 40.9209 1744.09 90.2358 1742.02 90.3896C1723.58 91.7562 1741.3 130.345 1740.1 153.275C1739.89 157.2 1737.7 161.668 1733.99 161.191C1722.76 159.744 1711.28 154.644 1692.08 152.939C1687.68 152.549 1685.32 150.345 1681.85 155.055C1671.66 168.915 1666.75 186.632 1660.67 190.917C1652.14 196.932 1650.24 172.914 1648.78 170.892C1646.82 168.192 1645.06 178.774 1642.56 180.986C1641.58 181.848 1639.89 178.777 1637.72 179.74C1631.1 182.688 1626.57 192.303 1620.11 195.45C1617.06 196.932 1613.12 192.646 1610.67 190.289C1608.22 187.933 1607.02 186.221 1603.27 191.478C1580.43 223.436 1568.13 233.222 1559.07 236.46C1552.95 238.647 1545.47 227.842 1535.42 221.477C1519.99 211.713 1515.68 249.245 1515.56 252.652C1514.94 270.382 1551.31 284.726 1558.37 288.033C1561.03 289.277 1558.47 293.872 1556.38 296.12C1554.29 298.368 1551.89 299.212 1549.63 299.39C1535.5 300.501 1515.57 290.603 1507.28 286.264C1491.64 278.08 1469.04 296.437 1463.6 294.637C1460.77 293.699 1458.34 301.658 1457.69 307.316C1455.58 325.74 1462.84 331.587 1462.07 335.337C1457.88 355.624 1421.34 365.512 1422.57 370.77C1425.28 382.364 1436.13 389.696 1437.14 396.937C1437.84 401.938 1455.09 399.791 1477.04 401.353C1483.56 401.817 1487.77 398.503 1491.18 399.412C1493.21 399.955 1493.91 404.212 1495.45 404.581C1496.98 404.951 1498.84 402.211 1500.81 402.488C1502.78 402.765 1504.8 406.141 1505.25 409.906C1507.01 424.811 1494.28 430.407 1492.45 433.804C1486.85 444.161 1506.8 460.996 1511.66 474.37C1517.14 489.411 1525.39 499.074 1546.72 518.481C1561.46 531.892 1577.96 533.079 1582.65 537.921C1587.21 542.63 1580.81 555.192 1578.57 566.724C1576.88 575.442 1595.64 574.546 1602.12 577.901C1605.01 579.401 1605.89 582.41 1603.85 584.39C1581.52 605.976 1533.65 556.966 1526.11 547.557C1517.59 536.906 1500.82 520.514 1493.84 505.479C1490.32 497.905 1493.47 489.8 1490.55 484.368C1482.62 469.603 1452.9 467.703 1441.25 457.555C1437.65 454.425 1443.1 452.538 1442.72 450.813C1441.86 446.849 1438.88 436.795 1436.75 435.304C1434.62 433.812 1433.25 441.235 1431.52 443.345C1428.98 446.444 1423.39 431.594 1417.79 423.153C1413.25 416.308 1403.33 432.518 1399.26 431.937C1386.17 430.066 1394.04 403.121 1394.8 395.379C1394.92 394.195 1394.38 398.577 1393.77 401.848C1393.17 405.119 1392.48 407.145 1386.81 398.874C1381.13 390.604 1370.48 371.975 1364.05 362.286C1357.62 352.597 1355.74 352.411 1349.46 358.928C1343.19 365.444 1332.57 378.668 1325.22 384.109C1317.87 389.549 1314.1 386.805 1310.7 381.882C1307.31 376.958 1304.4 369.938 1302.56 368.094C1300.4 365.94 1296.93 379.525 1292.78 389.576C1291.13 393.59 1290.01 395.238 1286.37 390.433C1268.35 366.651 1256.31 343.084 1249.43 320.025C1248.56 317.102 1248.91 313.228 1247.97 313.566C1242.72 315.446 1241.15 327.209 1236.23 335.036C1231.57 342.467 1211.55 366.596 1183.9 399.998C1170.14 416.617 1153.56 426.582 1133.35 440.365C1118.25 450.663 1111.79 462.081 1098.57 478.261C1070.69 512.377 1047.97 535.239 1044.09 541.106C1035.7 553.777 1035.5 566.62 1037.1 571.546C1042.17 587.106 1057.63 590.14 1061.41 597.813C1066.6 608.348 1058.27 628.964 1060.22 641.79C1060.68 644.768 1062 647.573 1064.3 649.642C1069.26 654.118 1081.62 653.083 1094.24 650.414C1101.48 648.882 1103.46 642.54 1105.68 641.719C1109.98 640.12 1102.94 666.349 1096.2 695.295C1088.35 728.985 1087.17 748.969 1089.26 758.222C1091.81 769.488 1111.99 773.89 1118.59 784.719C1128.4 800.825 1106.19 835.724 1093.13 847.225C1089.43 850.487 1082.73 851.98 1077.76 852.255C1068.86 852.747 1060.69 840.13 1054.78 832.188C1053.78 830.841 1051.17 831.897 1049.17 831.724C1047.17 831.551 1045.29 830.858 1045.24 835.228C1044.91 870.187 1079.82 886.903 1079.99 891.323C1080.2 896.877 1073.09 901.563 1071.69 906.692C1070.85 909.729 1079.2 912.554 1078.02 916.175C1076.83 919.795 1068.27 923.847 1064.78 926.946C1061.3 930.046 1063.15 932.072 1066.3 933.537C1069.44 935.003 1073.83 935.847 1077.02 936.788C1080.21 937.729 1082.07 938.742 1079.43 941.627C1076.79 944.512 1069.6 949.238 1067.83 952.939C1066.06 956.64 1069.93 959.172 1070.46 962.333C1071.66 969.513 1061.45 975.06 1057.89 978.804C1054.52 982.343 1071.15 984.277 1078.64 987.5C1083.77 989.707 1073.96 999.602 1070.66 1005.13C1061.35 1020.71 1106.56 1033.55 1112.38 1044.34C1113.41 1047.18 1113.92 1049.21 1115.19 1052.53C1116.46 1055.85 1118.49 1060.41 1123.65 1069.2" stroke="white" stroke-width="5" stroke-linecap="round"/>
</svg>
